<svg width="161" height="24" viewBox="0 0 161 24" fill="none" xmlns="http://www.w3.org/2000/svg">
<g clip-path="url(#clip0_2960_43223)">
<mask id="mask0_2960_43223" style="mask-type:luminance" maskUnits="userSpaceOnUse" x="0" y="0" width="161" height="24">
<path d="M160.717 0H0.0078125V24H160.717V0Z" fill="white"/>
</mask>
<g mask="url(#mask0_2960_43223)">
<path d="M22.0047 19.7421C19.1415 19.7421 17.4005 17.6597 17.4005 14.9341C17.4005 12.2085 19.1415 10.1549 22.0047 10.1549C24.868 10.1549 26.609 12.1325 26.609 14.9341C26.609 17.7357 24.868 19.7421 22.0047 19.7421ZM22.0047 5.89648C16.5536 5.89648 12.8906 9.60608 12.8906 14.9341C12.8906 20.2621 16.648 24.0005 22.0047 24.0005C27.3615 24.0005 31.09 20.1869 31.09 14.9341C31.09 9.68128 27.4559 5.89648 22.0047 5.89648Z" fill="#333339"/>
<path d="M4.4408 6.29395H0.0078125V23.6027H4.4408V6.29395Z" fill="#333339"/>
<path d="M9.29924 6.29297L4.74219 12.5202H10.1645L14.7216 6.29297H9.29924Z" fill="#333339"/>
<path d="M149.929 20.0531C148.578 20.0531 147.636 19.2395 147.636 18.2931C147.636 17.4035 148.236 16.7787 149.434 16.7787H154.086C153.582 18.6995 151.888 20.0531 149.938 20.0531M158.329 19.4947V12.2835C158.329 8.98033 155.637 6.30273 152.316 6.30273H144.573V10.4003H152.059C153.154 10.4003 154.048 11.2899 154.048 12.3779V13.2963H149.367C145.2 13.2963 143.336 15.6811 143.336 18.2643C143.336 21.4539 145.714 23.7627 149.539 23.7627C151.888 23.7627 153.677 22.6931 154.752 21.0275C155.152 22.7307 156.731 23.6107 158.301 23.6107H160.726V19.4939H158.329V19.4947Z" fill="#333339"/>
<path d="M119.342 13.4288C118.514 13.3432 115.869 13.1168 114.87 12.984C113.614 12.8136 113.129 12.2176 113.129 11.5736C113.129 10.7032 113.824 9.85119 116.145 9.85119C118.723 9.85119 119.607 11.072 119.779 12.2736H123.784C123.784 9.28319 121.13 6.00879 116.107 6.00879C111.407 6.00879 108.829 8.59199 108.829 11.64C108.829 14.2328 110.56 16.1824 113.338 16.5328C115.146 16.7504 116.516 16.892 118.095 17.0536C119.437 17.1864 119.836 17.6592 119.836 18.2936C119.836 19.1928 119.028 20.0536 116.44 20.0536C113.852 20.0536 112.749 19.0032 112.568 17.716H108.562C108.562 21.2648 111.712 23.9056 116.469 23.9056C121.226 23.9056 124.146 21.3696 124.146 18.1608C124.146 15.6432 122.604 13.7504 119.342 13.4288Z" fill="#333339"/>
<path d="M136.724 13.4288C135.896 13.3432 133.251 13.1168 132.252 12.984C130.997 12.8136 130.511 12.2176 130.511 11.5736C130.511 10.7032 131.206 9.85119 133.527 9.85119C136.106 9.85119 136.99 11.072 137.161 12.2736H141.166C141.166 9.28319 138.512 6.00879 133.489 6.00879C128.789 6.00879 126.212 8.59199 126.212 11.64C126.212 14.2328 127.943 16.1824 130.721 16.5328C132.528 16.7504 133.898 16.892 135.477 17.0536C136.819 17.1864 137.218 17.6592 137.218 18.2936C137.218 19.1928 136.41 20.0536 133.822 20.0536C131.234 20.0536 130.131 19.0032 129.95 17.716H125.945C125.945 21.2648 129.094 23.9056 133.851 23.9056C138.607 23.9056 141.528 21.3696 141.528 18.1608C141.528 15.6432 139.987 13.7504 136.724 13.4288Z" fill="#333339"/>
<path d="M96.4059 20.0627C95.0548 20.0627 94.1126 19.2491 94.1126 18.3027C94.1126 17.4131 94.7218 16.7883 95.9112 16.7883H100.563C100.058 18.7091 98.3655 20.0627 96.4147 20.0627M104.806 12.2835C104.806 8.98033 102.113 6.30273 98.7937 6.30273H91.0492V10.4003H98.5368C99.631 10.4003 100.525 11.2899 100.525 12.3779V13.2963H95.844C91.6776 13.2963 89.8125 15.6811 89.8125 18.2643C89.8125 21.4539 92.1915 23.7627 96.0153 23.7627C98.3655 23.7627 100.154 22.6931 101.229 21.0275C101.628 22.7307 103.208 23.6107 104.777 23.6107H107.203V19.4939H104.816V12.2827H104.806V12.2835Z" fill="#333339"/>
<path d="M61.4266 19.7421C58.5633 19.7421 56.8223 17.6597 56.8223 14.9341C56.8223 12.2085 58.5633 10.1549 61.4266 10.1549C64.2899 10.1549 66.0309 12.1325 66.0309 14.9341C66.0309 17.7357 64.2899 19.7421 61.4266 19.7421ZM61.4266 5.89648C55.9754 5.89648 52.3125 9.60608 52.3125 14.9341C52.3125 20.2621 56.0707 24.0005 61.4266 24.0005C66.7825 24.0005 70.5119 20.1869 70.5119 14.9341C70.5119 9.68128 66.8778 5.89648 61.4266 5.89648Z" fill="#333339"/>
<path d="M88.9122 6.29297H83.461L77.2109 14.8194L83.7275 23.6018H89.1979L82.6621 14.7722L88.9122 6.29297Z" fill="#333339"/>
<path d="M76.7924 0H72.3594V23.612H76.7924V0Z" fill="#333339"/>
<path d="M41.7902 19.76C38.9269 19.76 37.1763 17.6776 37.1763 14.9528C37.1763 12.228 38.9173 10.164 41.7902 10.164C44.6631 10.164 46.4041 12.1512 46.4041 14.9528C46.4041 17.7544 44.6631 19.76 41.7902 19.76ZM42.1896 5.896C40.1252 5.896 38.3466 6.6152 37.1571 7.732V0H32.6953V14.7256C32.6953 20.3568 36.263 24 41.8374 24C47.0701 24 50.8659 20.1576 50.8659 14.896C50.8659 9.6344 47.5272 5.896 42.1896 5.896Z" fill="#333339"/>
</g>
</g>
<defs>
<clipPath id="clip0_2960_43223">
<rect width="160.709" height="24" fill="white"/>
</clipPath>
</defs>
</svg>
